<svg width="240" height="26" viewBox="0 0 240 26" fill="none" xmlns="http://www.w3.org/2000/svg">
<rect x="0.855469" y="2.84033" width="23.4742" height="22.8237" fill="#00AF6F"/>
<path d="M20.9838 12.4133H14.5653L12.5895 6.2998L10.602 12.4133L4.18359 12.4016L9.37447 16.1844L7.38697 22.2979L12.5778 18.515L17.7687 22.2979L15.7929 16.1844L20.9838 12.4133Z" fill="white"/>
<path d="M12.6289 18.4688L15.8012 16.1793L16.2347 17.5413L12.6289 18.4688Z" fill="#00AF6F"/>
<rect x="26.7461" y="2.84521" width="23.4742" height="22.8237" fill="#00AF6F"/>
<path d="M46.8861 12.4143H40.4677L38.4919 6.30078L36.5044 12.4143L30.0859 12.4025L35.2768 16.1854L33.2893 22.2989L38.4802 18.516L43.6711 22.2989L41.6953 16.1854L46.8861 12.4143Z" fill="white"/>
<path d="M38.5351 18.4693L41.7075 16.1798L42.1409 17.5417L38.5351 18.4693Z" fill="#00AF6F"/>
<rect x="52.6367" y="2.84033" width="23.4742" height="22.8237" fill="#00AF6F"/>
<path d="M72.7807 12.4113H66.3622L64.3864 6.29785L62.3989 12.4113L55.9805 12.3996L61.1713 16.1825L59.1838 22.2959L64.3747 18.5131L69.5656 22.2959L67.5898 16.1825L72.7807 12.4113Z" fill="white"/>
<path d="M64.4218 18.4679L67.5942 16.1783L68.0277 17.5403L64.4218 18.4679Z" fill="#00AF6F"/>
<rect x="78.5312" y="2.84033" width="23.4742" height="22.8237" fill="#00AF6F"/>
<path d="M98.6713 12.4113H92.2528L90.277 6.29785L88.2895 12.4113L81.8711 12.3996L87.062 16.1825L85.0745 22.2959L90.2653 18.5131L95.4562 22.2959L93.4804 16.1825L98.6713 12.4113Z" fill="white"/>
<path d="M90.3125 18.4679L93.4848 16.1783L93.9183 17.5403L90.3125 18.4679Z" fill="#00AF6F"/>
<rect x="104.426" y="2.84082" width="23.4742" height="22.8237" fill="#00AF6F"/>
<rect x="116.277" y="2.84033" width="11.6221" height="22.8237" fill="#00AF6F"/>
<path d="M124.554 12.4143H118.136L116.16 6.30078L114.172 12.4143L107.754 12.4025L112.945 16.1854L110.957 22.2989L116.148 18.516L121.339 22.2989L119.363 16.1854L124.554 12.4143Z" fill="white"/>
<path d="M116.199 18.4713L119.372 16.1818L119.805 17.5437L116.199 18.4713Z" fill="#D7D7E2"/>
<path d="M163.543 9.74006H154.362L151.536 0.995117L148.693 9.74006L139.512 9.7233L146.937 15.1344L144.094 23.8794L151.519 18.4682L158.944 23.8794L156.118 15.1344L163.543 9.74006Z" fill="#00B67A"/>
<path d="M156.761 17.1131L156.125 15.1362L151.543 18.47L156.761 17.1131Z" fill="#005128"/>
<path d="M165.888 9.74121H176.039V11.6343H172.042V22.3058H169.851V11.6343H165.871L165.888 9.74121ZM175.604 13.209H177.477V14.9681H177.511C177.578 14.7168 177.695 14.4822 177.862 14.2477C178.029 14.0132 178.23 13.7954 178.481 13.6111C178.715 13.4101 178.982 13.2593 179.283 13.142C179.568 13.0247 179.869 12.9577 180.17 12.9577C180.404 12.9577 180.571 12.9745 180.655 12.9745C180.738 12.9912 180.839 13.008 180.922 13.008V14.9346C180.788 14.9011 180.638 14.8843 180.487 14.8676C180.337 14.8508 180.203 14.834 180.053 14.834C179.718 14.834 179.4 14.9011 179.099 15.0351C178.798 15.1691 178.547 15.3701 178.313 15.6214C178.096 15.8895 177.912 16.2078 177.778 16.5931C177.644 16.9784 177.578 17.4307 177.578 17.9333V22.2555H175.571L175.604 13.209ZM190.12 22.3058H188.147V21.0326H188.113C187.862 21.5016 187.495 21.8535 187.01 22.1383C186.525 22.423 186.023 22.5571 185.521 22.5571C184.334 22.5571 183.464 22.2723 182.929 21.6692C182.394 21.0828 182.126 20.1782 182.126 18.9887V13.209H184.133V18.7877C184.133 19.5918 184.284 20.1614 184.601 20.4797C184.902 20.8148 185.337 20.9823 185.889 20.9823C186.307 20.9823 186.658 20.9153 186.943 20.7813C187.227 20.6473 187.461 20.4797 187.628 20.2619C187.812 20.0442 187.929 19.7761 188.013 19.4746C188.097 19.173 188.13 18.838 188.13 18.4861V13.209H190.137V22.3058H190.12ZM193.532 19.3908C193.599 19.9771 193.816 20.3792 194.201 20.6305C194.585 20.865 195.054 20.9823 195.589 20.9823C195.773 20.9823 195.99 20.9656 196.224 20.9321C196.458 20.8985 196.692 20.8483 196.893 20.7645C197.111 20.6808 197.278 20.5635 197.412 20.396C197.545 20.2284 197.612 20.0274 197.596 19.7761C197.579 19.5248 197.495 19.307 197.311 19.1395C197.127 18.972 196.91 18.8547 196.642 18.7374C196.375 18.6369 196.057 18.5532 195.706 18.4861C195.355 18.4191 195.003 18.3354 194.635 18.2516C194.268 18.1678 193.9 18.0673 193.548 17.9501C193.197 17.8328 192.896 17.682 192.612 17.4642C192.344 17.2632 192.11 17.0119 191.96 16.6936C191.792 16.3753 191.709 16.0067 191.709 15.5377C191.709 15.0351 191.826 14.633 192.077 14.298C192.311 13.9629 192.629 13.6949 192.997 13.4938C193.364 13.2928 193.783 13.142 194.234 13.0583C194.686 12.9745 195.12 12.941 195.522 12.941C195.99 12.941 196.442 12.9912 196.86 13.0918C197.278 13.1923 197.679 13.3431 198.014 13.5776C198.365 13.7954 198.649 14.0969 198.866 14.4487C199.101 14.8005 199.234 15.2361 199.301 15.7387H197.211C197.111 15.2529 196.893 14.9346 196.559 14.767C196.207 14.5995 195.823 14.5157 195.371 14.5157C195.238 14.5157 195.054 14.5325 194.87 14.5492C194.669 14.5828 194.502 14.6163 194.318 14.6833C194.15 14.7503 194 14.8508 193.883 14.9681C193.766 15.0853 193.699 15.2529 193.699 15.4539C193.699 15.7052 193.783 15.8895 193.95 16.0402C194.117 16.191 194.334 16.3083 194.619 16.4256C194.886 16.5261 195.204 16.6098 195.555 16.6769C195.906 16.7439 196.274 16.8276 196.642 16.9114C197.01 16.9952 197.361 17.0957 197.713 17.2129C198.064 17.3302 198.382 17.481 198.649 17.6988C198.917 17.8998 199.151 18.1511 199.318 18.4526C199.485 18.7542 199.569 19.1395 199.569 19.5751C199.569 20.1112 199.452 20.5635 199.201 20.9488C198.95 21.3174 198.632 21.6357 198.248 21.8702C197.863 22.1047 197.412 22.2723 196.943 22.3895C196.458 22.4901 195.99 22.5571 195.522 22.5571C194.953 22.5571 194.418 22.4901 193.933 22.356C193.448 22.222 193.013 22.021 192.662 21.7697C192.311 21.5016 192.027 21.1833 191.826 20.7813C191.625 20.396 191.508 19.9269 191.491 19.374H193.515V19.3908H193.532ZM200.137 13.209H201.659V10.4616H203.666V13.1923H205.472V14.6833H203.666V19.5416C203.666 19.7594 203.683 19.9269 203.7 20.0944C203.716 20.2452 203.766 20.3792 203.817 20.4797C203.884 20.5802 203.984 20.664 204.101 20.7143C204.235 20.7645 204.402 20.798 204.636 20.798C204.77 20.798 204.92 20.798 205.054 20.7813C205.188 20.7645 205.338 20.7478 205.472 20.7143V22.2723C205.255 22.3058 205.037 22.3225 204.82 22.3393C204.603 22.3728 204.402 22.3728 204.168 22.3728C203.633 22.3728 203.215 22.3225 202.897 22.222C202.579 22.1215 202.328 21.9707 202.144 21.7864C201.96 21.5854 201.843 21.3509 201.776 21.0661C201.709 20.7813 201.676 20.4295 201.659 20.0609V14.7H200.137V13.1755V13.209ZM206.877 13.209H208.767V14.4487H208.8C209.085 13.9126 209.469 13.5441 209.971 13.3095C210.473 13.075 211.008 12.9577 211.61 12.9577C212.329 12.9577 212.948 13.075 213.483 13.3431C214.018 13.5943 214.453 13.9294 214.804 14.3817C215.155 14.8173 215.423 15.3366 215.59 15.923C215.757 16.5093 215.858 17.1459 215.858 17.7993C215.858 18.4191 215.774 19.0055 215.623 19.5751C215.456 20.1447 215.222 20.664 214.904 21.0996C214.587 21.5351 214.185 21.887 213.683 22.155C213.182 22.423 212.613 22.5571 211.944 22.5571C211.66 22.5571 211.359 22.5236 211.075 22.4733C210.79 22.423 210.506 22.3393 210.238 22.222C209.971 22.1047 209.72 21.954 209.503 21.7697C209.268 21.5854 209.085 21.3676 208.934 21.1331H208.901V25.6731H206.894V13.209H206.877ZM213.884 17.7658C213.884 17.3637 213.834 16.9616 213.717 16.5763C213.617 16.191 213.449 15.856 213.232 15.5544C213.015 15.2529 212.747 15.0183 212.446 14.834C212.128 14.6498 211.76 14.566 211.359 14.566C210.523 14.566 209.887 14.8508 209.452 15.4371C209.034 16.0235 208.817 16.8109 208.817 17.7825C208.817 18.2516 208.867 18.6704 208.984 19.0557C209.101 19.4411 209.252 19.7761 209.486 20.0609C209.703 20.3457 209.971 20.5635 210.289 20.731C210.606 20.8985 210.958 20.9823 211.376 20.9823C211.844 20.9823 212.212 20.8818 212.53 20.6975C212.847 20.5132 213.098 20.2619 213.316 19.9771C213.516 19.6756 213.667 19.3405 213.75 18.9552C213.834 18.5532 213.884 18.1678 213.884 17.7658ZM217.413 9.74121H219.42V11.6343H217.413V9.74121ZM217.413 13.209H219.42V22.3058H217.413V13.209ZM221.209 9.74121H223.216V22.3058H221.209V9.74121ZM229.337 22.5571C228.618 22.5571 227.965 22.4398 227.397 22.1885C226.828 21.9372 226.36 21.6189 225.959 21.2001C225.574 20.7813 225.273 20.2619 225.072 19.6756C224.871 19.0892 224.754 18.4359 224.754 17.749C224.754 17.0622 224.855 16.4256 225.072 15.8392C225.273 15.2529 225.574 14.7503 225.959 14.3147C226.343 13.8959 226.828 13.5608 227.397 13.3263C227.965 13.0918 228.618 12.9577 229.337 12.9577C230.056 12.9577 230.708 13.075 231.277 13.3263C231.845 13.5608 232.313 13.8959 232.715 14.3147C233.099 14.7335 233.4 15.2529 233.601 15.8392C233.802 16.4256 233.919 17.0622 233.919 17.749C233.919 18.4526 233.819 19.0892 233.601 19.6756C233.384 20.2619 233.099 20.7645 232.715 21.2001C232.33 21.6189 231.845 21.954 231.277 22.1885C230.708 22.423 230.072 22.5571 229.337 22.5571ZM229.337 20.9656C229.771 20.9656 230.173 20.865 230.491 20.6808C230.825 20.4965 231.076 20.2452 231.293 19.9436C231.511 19.6421 231.661 19.2903 231.762 18.9217C231.862 18.5364 231.912 18.1511 231.912 17.749C231.912 17.3637 231.862 16.9784 231.762 16.5931C231.661 16.2078 231.511 15.8727 231.293 15.5712C231.076 15.2696 230.808 15.0351 230.491 14.8508C230.156 14.6665 229.771 14.566 229.337 14.566C228.902 14.566 228.5 14.6665 228.183 14.8508C227.848 15.0351 227.597 15.2864 227.38 15.5712C227.163 15.8727 227.012 16.2078 226.912 16.5931C226.811 16.9784 226.761 17.3637 226.761 17.749C226.761 18.1511 226.811 18.5364 226.912 18.9217C227.012 19.307 227.163 19.6421 227.38 19.9436C227.597 20.2452 227.865 20.4965 228.183 20.6808C228.517 20.8818 228.902 20.9656 229.337 20.9656ZM234.521 13.209H236.043V10.4616H238.05V13.1923H239.856V14.6833H238.05V19.5416C238.05 19.7594 238.066 19.9269 238.083 20.0944C238.1 20.2452 238.15 20.3792 238.2 20.4797C238.267 20.5802 238.367 20.664 238.484 20.7143C238.618 20.7645 238.785 20.798 239.02 20.798C239.153 20.798 239.304 20.798 239.438 20.7813C239.571 20.7645 239.722 20.7478 239.856 20.7143V22.2723C239.638 22.3058 239.421 22.3225 239.203 22.3393C238.986 22.3728 238.785 22.3728 238.551 22.3728C238.016 22.3728 237.598 22.3225 237.28 22.222C236.963 22.1215 236.712 21.9707 236.528 21.7864C236.344 21.5854 236.227 21.3509 236.16 21.0661C236.093 20.7813 236.059 20.4295 236.043 20.0609V14.7H234.521V13.1755V13.209Z" fill="black"/>
</svg>
